<svg width="430" height="932" viewBox="0 0 430 932" fill="none" xmlns="http://www.w3.org/2000/svg">
<g clip-path="url(#clip0_18_3)">
<rect width="430" height="932" fill="white"/>
<path d="M523.412 556.986L523.412 723.986L507.487 731.625C398.378 783.963 328.964 894.248 328.963 1015.26V1015.26L132.963 996.76L196.444 866.317C232.561 792.101 286.49 727.981 353.417 679.677L523.412 556.986Z" fill="#567CF6"/>
<path d="M-184.906 204.137L-53.0946 68.9007L-35.926 64.7511C81.6998 36.3214 172.59 -57.0595 197.831 -175.411V-175.411L430.5 -103.5L224.082 41.5989C186.105 68.2942 144.596 89.5708 100.75 104.816L-184.906 204.137Z" fill="#567CF6"/>
<rect x="321.139" y="49.3053" width="15.1248" height="65.5406" rx="7.56238" transform="rotate(-31.0005 321.139 49.3053)" fill="#567CF6"/>
<rect x="368.694" y="50.1394" width="15.1248" height="65.5406" rx="7.56238" transform="rotate(58.9995 368.694 50.1394)" fill="#567CF6"/>
<rect x="204.713" y="628.624" width="13.5051" height="86.6518" rx="6.75257" transform="rotate(58.9995 204.713 628.624)" fill="#567CF6"/>
<rect x="144.354" y="621.943" width="13.5051" height="86.6518" rx="6.75257" transform="rotate(-28.6505 144.354 621.943)" fill="#567CF6"/>
<circle cx="331.887" cy="179.887" r="33.8867" fill="#567CF6"/>
<circle cx="331.777" cy="179.777" r="24.7774" fill="white"/>
<circle cx="82" cy="540" r="35" fill="#567CF6"/>
<circle cx="81.8871" cy="539.887" r="25.5914" fill="white"/>
<path d="M31.6482 787.306L88.9433 833.523L20.2706 860.033L31.6482 787.306Z" fill="#567CF6"/>
<path d="M35.623 796.883L79.293 832.109L26.951 852.315L35.623 796.883Z" fill="white"/>
<path d="M140.884 314.778L215.547 389.44L113.556 416.769L140.884 314.778Z" fill="#567CF6"/>
<path d="M145.092 329.044L201.999 385.951L124.262 406.781L145.092 329.044Z" fill="white"/>
<rect x="97" y="851" width="52" height="52" fill="#567CF6"/>
<rect x="101.894" y="855.894" width="42.2118" height="42.2118" fill="white"/>
<rect x="272" y="540" width="82" height="82" fill="#567CF6"/>
<rect x="279.718" y="547.718" width="66.5647" height="66.5647" fill="white"/>
</g>
<defs>
<clipPath id="clip0_18_3">
<rect width="430" height="932" fill="white"/>
</clipPath>
</defs>
</svg>
